<svg width="18" height="20" viewBox="0 0 18 20" fill="none" xmlns="http://www.w3.org/2000/svg">
<path fill-rule="evenodd" clip-rule="evenodd" d="M9.61538 0.100497L16.2579 2.36744C17.0009 2.62143 17.5 3.30542 17.5 4.0714V10.7122C17.5 12.7252 16.7519 14.6741 15.3946 16.1951C14.773 16.8921 13.9755 17.4911 12.9567 18.0271L9.36634 19.912C9.25418 19.97 9.13069 20 9.00617 20C8.88269 20 8.7592 19.97 8.64703 19.912L5.04946 18.026C4.02863 17.4891 3.23008 16.8901 2.60956 16.1961C1.25018 14.6731 0.5 12.7232 0.5 10.7082C0.5 10.3022 0.839588 9.97225 1.25739 9.97225C1.67518 9.97225 2.01477 10.3022 2.01477 10.7082C2.01477 12.3702 2.6322 13.9762 3.75285 15.2321C4.25194 15.7911 4.91156 16.2811 5.76876 16.7311L9.00617 18.428L12.2364 16.7321C13.0915 16.2831 13.7512 15.7931 14.2513 15.2321C15.3699 13.9772 15.9863 12.3732 15.9863 10.7122V4.0714C15.9863 3.9294 15.8936 3.8034 15.7568 3.75641L9.11423 1.48946C9.04116 1.46446 8.95987 1.46446 8.88577 1.48946L2.24425 3.75641C2.10738 3.8034 2.01477 3.9294 2.01477 4.0714V5.97135C2.01477 6.37834 1.67518 6.70833 1.25739 6.70833C0.839588 6.70833 0.5 6.37834 0.5 5.97135V4.0714C0.5 3.30542 1.00012 2.62143 1.7431 2.36744L8.38462 0.100497C8.78184 -0.0334992 9.21919 -0.0334992 9.61538 0.100497ZM8.28625 12.3175C8.08455 12.3175 7.89315 12.2395 7.75114 12.1015L5.84121 10.2455C5.54587 9.95755 5.54587 9.49356 5.84121 9.20557C6.13758 8.91758 6.61609 8.91758 6.91143 9.20557L8.28625 10.5405L11.6842 7.23962C11.9795 6.95263 12.4591 6.95263 12.7544 7.23962C13.0497 7.52661 13.0497 7.9926 12.7544 8.27959L8.82136 12.1015C8.67935 12.2395 8.48691 12.3175 8.28625 12.3175Z" fill="white"/>
</svg>
